<?xml version="1.0" encoding="utf-8"?>
<svg id="master-artboard" viewBox="0 0 1400 980" version="1.1" xmlns="http://www.w3.org/2000/svg" x="0px" y="0px" width="1400px" height="980px" enable-background="new 0 0 1400 980">
<path d="M 0 0 H 1400 V 980 H 0 V 0 Z" id="XMLID_110_" fill-rule="evenodd" clip-rule="evenodd" fill="#ADAFB2" transform="matrix(1, 0, 0, 1, 2.842170943040401e-14, 0)"/><path d="M 0 678.200012 H 1400 V 980 H 0 V 678.200012 Z" id="XMLID_109_" fill-rule="evenodd" clip-rule="evenodd" fill="#616264" transform="matrix(1, 0, 0, 1, 2.842170943040401e-14, 0)"/><path d="M 446.899994 237.300003 H 953 V 531.300003 H 446.899994 V 237.300003 Z" id="XMLID_108_" fill-rule="evenodd" clip-rule="evenodd" fill="#252122" transform="matrix(1, 0, 0, 1, 2.842170943040401e-14, 0)"/><path d="M 460.600006 250.899994 H 939.5 V 517.600006 H 460.600006 V 250.899994 Z" id="XMLID_107_" fill-rule="evenodd" clip-rule="evenodd" fill="#00C2F3" transform="matrix(1, 0, 0, 1, 2.842170943040401e-14, 0)"/><path d="M 939.2999877929688 250.89999389648438 L 460.6000061035156 250.89999389648438 L 939.2999877929688 517.5999755859375 Z" id="XMLID_106_" fill-rule="evenodd" clip-rule="evenodd" fill="#00AEDA" transform="matrix(1, 0, 0, 1, 2.842170943040401e-14, 0)"/><path id="XMLID_105_" fill-rule="evenodd" clip-rule="evenodd" fill="#5A5B5F" d="M906.2,524.3c0-0.9-0.7-1.6-1.6-1.6&#10;&#9;&#9;c-0.9,0-1.6,0.7-1.6,1.6c0,0.9,0.7,1.6,1.6,1.6C905.5,525.9,906.2,525.2,906.2,524.3" transform="matrix(1, 0, 0, 1, 2.842170943040401e-14, 0)"/><path id="XMLID_104_" fill-rule="evenodd" clip-rule="evenodd" fill="#5A5B5F" d="M913.5,524.3c0-0.9-0.7-1.6-1.6-1.6&#10;&#9;&#9;c-0.9,0-1.6,0.7-1.6,1.6c0,0.9,0.7,1.6,1.6,1.6C912.8,525.9,913.5,525.2,913.5,524.3" transform="matrix(1, 0, 0, 1, 2.842170943040401e-14, 0)"/><path id="XMLID_103_" fill-rule="evenodd" clip-rule="evenodd" fill="#5A5B5F" d="M920.7,524.3c0-0.9-0.7-1.6-1.6-1.6&#10;&#9;&#9;c-0.9,0-1.6,0.7-1.6,1.6c0,0.9,0.7,1.6,1.6,1.6C920,525.9,920.7,525.2,920.7,524.3" transform="matrix(1, 0, 0, 1, 2.842170943040401e-14, 0)"/><path id="XMLID_102_" fill-rule="evenodd" clip-rule="evenodd" fill="#5A5B5F" d="M927.8,524.3c0-0.9-0.7-1.6-1.6-1.6&#10;&#9;&#9;c-0.9,0-1.6,0.7-1.6,1.6c0,0.9,0.7,1.6,1.6,1.6C927.1,525.9,927.8,525.2,927.8,524.3" transform="matrix(1, 0, 0, 1, 2.842170943040401e-14, 0)"/><path id="XMLID_101_" fill-rule="evenodd" clip-rule="evenodd" fill="#5A5B5F" d="M935.1,524.3c0-0.9-0.7-1.6-1.6-1.6&#10;&#9;&#9;c-0.9,0-1.6,0.7-1.6,1.6c0,0.9,0.7,1.6,1.6,1.6C934.4,525.9,935.1,525.2,935.1,524.3" transform="matrix(1, 0, 0, 1, 2.842170943040401e-14, 0)"/><path d="M 74.300003 584.200012 H 1325.700027 V 755.000015 H 74.300003 V 584.200012 Z" id="XMLID_100_" fill-rule="evenodd" clip-rule="evenodd" fill="#D39B54" transform="matrix(1, 0, 0, 1, 2.842170943040401e-14, 0)"/><path d="M 74.300003 584.200012 H 1013.599991 V 717.500015 H 74.300003 V 584.200012 Z" id="XMLID_99_" fill-rule="evenodd" clip-rule="evenodd" fill="#FFFFFF" transform="matrix(1, 0, 0, 1, 2.842170943040401e-14, 0)"/><path d="M 1013.5 618.900024 H 1289.299988 V 714.800026 H 1013.5 V 618.900024 Z" id="XMLID_98_" fill-rule="evenodd" clip-rule="evenodd" fill="#A87541" transform="matrix(1, 0, 0, 1, 2.842170943040401e-14, 0)"/><path d="M 74.300003 717.599976 H 1013.599991 V 727.599976 H 74.300003 V 717.599976 Z" id="XMLID_97_" fill-rule="evenodd" clip-rule="evenodd" fill="#D6AC59" transform="matrix(1, 0, 0, 1, 2.842170943040401e-14, 0)"/><path d="M 385.700012 591 H 390.800012 V 710.800003 H 385.700012 V 591 Z" id="XMLID_96_" fill-rule="evenodd" clip-rule="evenodd" fill="#CFD0D1" transform="matrix(1, 0, 0, 1, 2.842170943040401e-14, 0)"/><path d="M 697.099976 591 H 702.199975 V 710.800003 H 697.099976 V 591 Z" id="XMLID_95_" fill-rule="evenodd" clip-rule="evenodd" fill="#CFD0D1" transform="matrix(1, 0, 0, 1, 2.842170943040401e-14, 0)"/><path d="M 275.600006 572.599976 H 294.300007 V 584.299975 H 275.600006 V 572.599976 Z" id="XMLID_94_" fill-rule="evenodd" clip-rule="evenodd" fill="#3B393C" transform="matrix(1, 0, 0, 1, 2.842170943040401e-14, 0)"/><path d="M 361.399994 572.599976 H 380.099995 V 584.299975 H 361.399994 V 572.599976 Z" id="XMLID_93_" fill-rule="evenodd" clip-rule="evenodd" fill="#3B393C" transform="matrix(1, 0, 0, 1, 2.842170943040401e-14, 0)"/><path d="M 275.600006 579.700012 H 294.300007 V 581.300012 H 275.600006 V 579.700012 Z" id="XMLID_92_" fill-rule="evenodd" clip-rule="evenodd" fill="#353334" transform="matrix(1, 0, 0, 1, 2.842170943040401e-14, 0)"/><path d="M 361.399994 579.700012 H 380.099995 V 581.300012 H 361.399994 V 579.700012 Z" id="XMLID_91_" fill-rule="evenodd" clip-rule="evenodd" fill="#353334" transform="matrix(1, 0, 0, 1, 2.842170943040401e-14, 0)"/><path d="M 269.299988 411.700012 H 387.899986 V 575.100006 H 269.299988 V 411.700012 Z" id="XMLID_90_" fill-rule="evenodd" clip-rule="evenodd" fill="#252122" transform="matrix(1, 0, 0, 1, 2.842170943040401e-14, 0)"/><path id="XMLID_89_" fill-rule="evenodd" clip-rule="evenodd" fill="#353334" d="M328.5,474.1c14.8,0,27.1-12.1,27.1-27.2&#10;&#9;&#9;c0-14.9-12.1-27.2-27.1-27.2c-14.8,0-27.1,12.1-27.1,27.2C301.4,461.9,313.5,474.1,328.5,474.1" transform="matrix(1, 0, 0, 1, 2.842170943040401e-14, 0)"/><path id="XMLID_88_" fill-rule="evenodd" clip-rule="evenodd" fill="#3B393C" d="M328.5,471.6c13.5,0,24.6-11,24.6-24.7&#10;&#9;&#9;c0-13.5-10.9-24.7-24.6-24.7c-13.5,0-24.6,11-24.6,24.7C303.9,460.6,314.9,471.6,328.5,471.6" transform="matrix(1, 0, 0, 1, 2.842170943040401e-14, 0)"/><path id="XMLID_87_" fill-rule="evenodd" clip-rule="evenodd" fill="#353334" d="M328.5,460.1c7.1,0,13-5.9,13-13&#10;&#9;&#9;c0-7.1-5.9-13-13-13c-7.1,0-13,5.9-13,13C315.3,454.2,321.2,460.1,328.5,460.1" transform="matrix(1, 0, 0, 1, 2.842170943040401e-14, 0)"/><path id="XMLID_86_" fill-rule="evenodd" clip-rule="evenodd" fill="#353334" d="M328.5,567.2c24.2,0,44-19.9,44-44.2&#10;&#9;&#9;s-19.8-44.2-44-44.2c-24.2,0-44,19.9-44,44.2S304.4,567.2,328.5,567.2" transform="matrix(1, 0, 0, 1, 2.842170943040401e-14, 0)"/><path id="XMLID_85_" fill-rule="evenodd" clip-rule="evenodd" fill="#3B393C" d="M328.5,563.3c22.1,0,39.9-18.1,39.9-40&#10;&#9;&#9;c0-22.2-18-40-39.9-40c-22.1,0-39.9,18.1-39.9,40C288.6,545.2,306.7,563.3,328.5,563.3" transform="matrix(1, 0, 0, 1, 2.842170943040401e-14, 0)"/><path id="XMLID_84_" fill-rule="evenodd" clip-rule="evenodd" fill="#353334" d="M328.5,544.3c11.6,0,21.2-9.6,21.2-21.3&#10;&#9;&#9;c0-11.7-9.6-21.3-21.2-21.3c-11.6,0-21.2,9.6-21.2,21.3C307.6,534.7,316.9,544.3,328.5,544.3" transform="matrix(1, 0, 0, 1, 2.842170943040401e-14, 0)"/><path d="M 1018.599976 572.599976 H 1037.299976 V 584.299975 H 1018.599976 V 572.599976 Z" id="XMLID_83_" fill-rule="evenodd" clip-rule="evenodd" fill="#3B393C" transform="matrix(1, 0, 0, 1, 2.842170943040401e-14, 0)"/><path d="M 1104.300049 572.599976 H 1123.00005 V 584.299975 H 1104.300049 V 572.599976 Z" id="XMLID_82_" fill-rule="evenodd" clip-rule="evenodd" fill="#3B393C" transform="matrix(1, 0, 0, 1, 2.842170943040401e-14, 0)"/><path d="M 1018.599976 579.700012 H 1037.299976 V 581.300012 H 1018.599976 V 579.700012 Z" id="XMLID_81_" fill-rule="evenodd" clip-rule="evenodd" fill="#353334" transform="matrix(1, 0, 0, 1, 2.842170943040401e-14, 0)"/><path d="M 1104.300049 579.700012 H 1123.00005 V 581.300012 H 1104.300049 V 579.700012 Z" id="XMLID_80_" fill-rule="evenodd" clip-rule="evenodd" fill="#353334" transform="matrix(1, 0, 0, 1, 2.842170943040401e-14, 0)"/><path d="M 1012.200012 411.700012 H 1130.800011 V 575.100006 H 1012.200012 V 411.700012 Z" id="XMLID_79_" fill-rule="evenodd" clip-rule="evenodd" fill="#252122" transform="matrix(1, 0, 0, 1, 2.842170943040401e-14, 0)"/><path id="XMLID_78_" fill-rule="evenodd" clip-rule="evenodd" fill="#353334" d="M1071.5,474.1c14.8,0,27.1-12.1,27.1-27.2&#10;&#9;&#9;c0-14.9-12.1-27.2-27.1-27.2c-14.8,0-27.1,12.1-27.1,27.2C1044.3,461.9,1056.4,474.1,1071.5,474.1" transform="matrix(1, 0, 0, 1, 2.842170943040401e-14, 0)"/><path id="XMLID_77_" fill-rule="evenodd" clip-rule="evenodd" fill="#3B393C" d="M1071.5,471.6c13.5,0,24.6-11,24.6-24.7&#10;&#9;&#9;c0-13.5-10.9-24.7-24.6-24.7c-13.5,0-24.6,11-24.6,24.7C1046.8,460.6,1057.8,471.6,1071.5,471.6" transform="matrix(1, 0, 0, 1, 2.842170943040401e-14, 0)"/><path id="XMLID_76_" fill-rule="evenodd" clip-rule="evenodd" fill="#353334" d="M1071.5,460.1c7.1,0,13-5.9,13-13&#10;&#9;&#9;c0-7.1-5.9-13-13-13c-7.1,0-13,5.9-13,13C1058.2,454.2,1064.2,460.1,1071.5,460.1" transform="matrix(1, 0, 0, 1, 2.842170943040401e-14, 0)"/><path id="XMLID_75_" fill-rule="evenodd" clip-rule="evenodd" fill="#353334" d="M1071.5,567.2c24.2,0,44-19.9,44-44.2&#10;&#9;&#9;s-19.8-44.2-44-44.2c-24.2,0-44,19.9-44,44.2S1047.3,567.2,1071.5,567.2" transform="matrix(1, 0, 0, 1, 2.842170943040401e-14, 0)"/><path id="XMLID_74_" fill-rule="evenodd" clip-rule="evenodd" fill="#3B393C" d="M1071.5,563.3c22.1,0,39.9-18.1,39.9-40&#10;&#9;&#9;c0-22.2-18-40-39.9-40c-22.1,0-39.9,18.1-39.9,40C1031.6,545.2,1049.6,563.3,1071.5,563.3" transform="matrix(1, 0, 0, 1, 2.842170943040401e-14, 0)"/><path id="XMLID_73_" fill-rule="evenodd" clip-rule="evenodd" fill="#353334" d="M1071.5,544.3c11.6,0,21.2-9.6,21.2-21.3&#10;&#9;&#9;c0-11.7-9.6-21.3-21.2-21.3c-11.6,0-21.2,9.6-21.2,21.3C1050.5,534.7,1059.8,544.3,1071.5,544.3" transform="matrix(1, 0, 0, 1, 2.842170943040401e-14, 0)"/><path id="XMLID_72_" fill-rule="evenodd" clip-rule="evenodd" fill="#FFFFFF" d="M1245.4,699.2h-85.6V712h85.6&#10;&#9;&#9;c3.5,0,6.4-2.9,6.4-6.4C1251.8,702.1,1248.9,699.2,1245.4,699.2" transform="matrix(1, 0, 0, 1, 2.842170943040401e-14, 0)"/><path id="XMLID_71_" fill-rule="evenodd" clip-rule="evenodd" fill="#BC527F" d="M1246.1,696.8h-89.5v2.6l89.3,0&#10;&#9;&#9;c3.5,0,6.4,2.9,6.4,6.4s-2.9,6.4-6.4,6.4l-89.3,0v2.6h89.5c4.8,0,9-4,9-9C1255.1,700.7,1250.9,696.8,1246.1,696.8" transform="matrix(1, 0, 0, 1, 2.842170943040401e-14, 0)"/><path id="XMLID_70_" fill-rule="evenodd" clip-rule="evenodd" fill="#FFFFFF" d="M1169.2,678.5h80.7v15h-80.7&#10;&#9;&#9;c-4.2,0-7.5-3.3-7.5-7.5C1161.7,682,1165.2,678.5,1169.2,678.5" transform="matrix(1, 0, 0, 1, 2.842170943040401e-14, 0)"/><path id="XMLID_69_" fill-rule="evenodd" clip-rule="evenodd" fill="#543B21" d="M1168.4,675.4h85.3v3.1h-84.9&#10;&#9;&#9;c-4.2,0-7.5,3.3-7.5,7.5s3.3,7.5,7.5,7.5h84.9v3.1h-85.3c-5.7,0-10.5-4.8-10.5-10.6S1162.7,675.4,1168.4,675.4" transform="matrix(1, 0, 0, 1, 2.842170943040401e-14, 0)"/><path id="XMLID_68_" fill-rule="evenodd" clip-rule="evenodd" fill="#FFFFFF" d="M1245.4,660.2h-85.6V673h85.6&#10;&#9;&#9;c3.5,0,6.4-2.9,6.4-6.4C1251.8,663.1,1248.9,660.2,1245.4,660.2" transform="matrix(1, 0, 0, 1, 2.842170943040401e-14, 0)"/><path id="XMLID_67_" fill-rule="evenodd" clip-rule="evenodd" fill="#5E91B0" d="M1246.1,657.6h-89.5v2.6h89.3&#10;&#9;&#9;c3.5,0,6.4,2.9,6.4,6.4c0,3.5-2.9,6.4-6.4,6.4l-89.3,0v2.6h89.5c4.8,0,9-4,9-9C1255.1,661.5,1250.9,657.6,1246.1,657.6" transform="matrix(1, 0, 0, 1, 2.842170943040401e-14, 0)"/><path id="XMLID_66_" fill-rule="evenodd" clip-rule="evenodd" fill="#FFFFFF" d="M1242.9,655.6h-79v-9.7h79c2.6,0,4.8,2.2,4.8,4.8&#10;&#9;&#9;C1247.7,653.4,1245.5,655.6,1242.9,655.6" transform="matrix(1, 0, 0, 1, 2.842170943040401e-14, 0)"/><path id="XMLID_65_" fill-rule="evenodd" clip-rule="evenodd" fill="#D19F48" d="M1243.5,657.6h-82.1v-2h81.6&#10;&#9;&#9;c2.6,0,4.8-2.2,4.8-4.8c0-2.6-2.2-4.8-4.8-4.8l-81.6,0v-2h82.1c3.7,0,6.8,3.1,6.8,6.8C1250.3,654.5,1247.2,657.6,1243.5,657.6" transform="matrix(1, 0, 0, 1, 2.842170943040401e-14, 0)"/><path id="XMLID_64_" fill-rule="evenodd" clip-rule="evenodd" fill="#FFFFFF" d="M1239.3,641.3H1166v-12.5h73.3&#10;&#9;&#9;c3.5,0,6.4,2.9,6.4,6.4C1245.7,638.7,1242.8,641.3,1239.3,641.3" transform="matrix(1, 0, 0, 1, 2.842170943040401e-14, 0)"/><path id="XMLID_63_" fill-rule="evenodd" clip-rule="evenodd" fill="#BC527F" d="M1240.1,643.9h-77.2v-2.6h76.8&#10;&#9;&#9;c3.5,0,6.4-2.9,6.4-6.4s-2.9-6.4-6.4-6.4l-76.8,0v-2.6h77.2c4.8,0,8.8,4,8.8,8.8C1248.8,640,1244.9,643.9,1240.1,643.9" transform="matrix(1, 0, 0, 1, 2.842170943040401e-14, 0)"/><path d="M 1210.9000244140625 662 L 1200.800048828125 662 L 1200.800048828125 671.7000122070312 L 1205.800048828125 667.7000122070312 L 1210.9000244140625 671.7000122070312 Z" id="XMLID_62_" fill-rule="evenodd" clip-rule="evenodd" fill="#FFFFFF" transform="matrix(1, 0, 0, 1, 2.842170943040401e-14, 0)"/><path id="XMLID_61_" fill-rule="evenodd" clip-rule="evenodd" fill="#3D2D3E" d="M137.6,578.1h66.8c1,0,1.7,0.8,1.7,1.8v2.6&#10;&#9;&#9;&#9;c0,1-0.8,1.8-1.7,1.8h-66.8c-1,0-1.7-0.8-1.7-1.8v-2.6C135.9,578.9,136.7,578.1,137.6,578.1" transform="matrix(1, 0, 0, 1, 5.684341886080802e-14, 0)"/><path d="M 167.100006 404.700012 H 174.900006 V 578.200012 H 167.100006 V 404.700012 Z" id="XMLID_60_" fill-rule="evenodd" clip-rule="evenodd" fill="#634965" transform="matrix(1, 0, 0, 1, 8.526512829121202e-14, 0)"/><path d="M 171.199997 404.700012 H 174.899997 V 578.200012 H 171.199997 V 404.700012 Z" id="XMLID_59_" fill-rule="evenodd" clip-rule="evenodd" fill="#3D2D3E" transform="matrix(1, 0, 0, 1, 8.526512829121202e-14, 0)"/><path d="M 113.0999984741211 422.1000061035156 L 228.89999389648438 422.1000061035156 L 218.1999969482422 355.70001220703125 L 122.9000015258789 355.70001220703125 Z" id="XMLID_58_" fill-rule="evenodd" clip-rule="evenodd" fill="#634965" transform="matrix(1, 0, 0, 1, 8.526512829121202e-14, 0)"/><path d="M 152.6999969482422 422.1000061035156 L 228.89999389648438 422.1000061035156 L 218.1999969482422 355.70001220703125 L 155.5 355.70001220703125 Z" id="XMLID_57_" fill-rule="evenodd" clip-rule="evenodd" fill="#3D2D3E" transform="matrix(1, 0, 0, 1, 8.526512829121202e-14, 0)"/><path d="M 152.6999969482422 422.1000061035156 L 190.8000030517578 422.1000061035156 L 186.1999969482422 355.70001220703125 L 155.5 355.70001220703125 Z" id="XMLID_56_" fill-rule="evenodd" clip-rule="evenodd" fill="#503B52" transform="matrix(1, 0, 0, 1, 8.526512829121202e-14, 0)"/><path d="M 551 774.5 L 646.7000122070312 870.5 L 637.5 879.7000122070312 L 583.5999755859375 894.2000122070312 L 507.70001220703125 818 Z" id="XMLID_55_" fill-rule="evenodd" clip-rule="evenodd" fill="#F3C09B" transform="matrix(1, 0, 0, 1, 2.842170943040401e-14, 0)"/><path d="M 669.5999755859375 807.9000244140625 L 591.2000122070312 729.2999877929688 L 341.3999938964844 980 L 498.20001220703125 980 Z" id="XMLID_54_" fill-rule="evenodd" clip-rule="evenodd" fill="#ECC1A6" transform="matrix(1, 0, 0, 1, 2.842170943040401e-14, 0)"/><path d="M 507.1000061035156 980 L 577.4000244140625 909.5 L 490 821.9000244140625 L 332.3999938964844 980 Z" id="XMLID_53_" fill-rule="evenodd" clip-rule="evenodd" fill="#FFFFFF" transform="matrix(1, 0, 0, 1, 2.842170943040401e-14, 0)"/><path d="M 516.0999755859375 980 L 560.2999877929688 935.5999755859375 L 464 838.9000244140625 L 323.3999938964844 980 Z" id="XMLID_52_" fill-rule="evenodd" clip-rule="evenodd" fill="#283962" transform="matrix(1, 0, 0, 1, 2.842170943040401e-14, 0)"/><path id="XMLID_51_" fill-rule="evenodd" clip-rule="evenodd" fill="#353839" d="M559.2,912.9c-1.9,1.9-4.9,1.9-6.7,0&#10;&#9;&#9;c-1.9-1.9-1.9-4.9,0-6.8c1.9-1.9,4.9-1.9,6.7,0C561.1,908,561.1,911,559.2,912.9" transform="matrix(1, 0, 0, 1, 2.842170943040401e-14, 0)"/><path d="M 512.2000122070312 887.2999877929688 L 464 838.9000244140625 L 323.3999938964844 980 L 419.79998779296875 980 Z" id="XMLID_50_" fill-rule="evenodd" clip-rule="evenodd" fill="#273F6E" transform="matrix(1, 0, 0, 1, 2.842170943040401e-14, 0)"/><path id="XMLID_49_" fill-rule="evenodd" clip-rule="evenodd" fill="#FFFFFF" d="M534.2,943.4c-2.7,2.7-7.2,2.7-9.9,0&#10;&#9;&#9;c-2.7-2.7-2.7-7.2,0-9.9c2.7-2.7,7.2-2.7,9.9,0C536.9,936.2,536.9,940.7,534.2,943.4" transform="matrix(1, 0, 0, 1, 2.842170943040401e-14, 0)"/><path id="XMLID_48_" fill-rule="evenodd" clip-rule="evenodd" fill="#FFFFFF" d="M511.2,967.3c-2.7,2.7-7.2,2.7-9.9,0&#10;&#9;&#9;c-2.7-2.7-2.7-7.2,0-9.9c2.7-2.7,7.2-2.7,9.9,0C513.9,960.1,513.9,964.6,511.2,967.3" transform="matrix(1, 0, 0, 1, 2.842170943040401e-14, 0)"/><path id="XMLID_47_" fill-rule="evenodd" clip-rule="evenodd" fill="#312D2F" d="M619.8,588.7l73,14.9c9.9,2,16.4,11.8,14.4,21.8&#10;&#9;&#9;l-53.6,265.6c-2,10-11.8,16.5-21.7,14.5l-73-14.9c-9.9-2-16.4-11.8-14.4-21.8l53.6-265.6C600.1,593.1,609.9,586.6,619.8,588.7" transform="matrix(1, 0, 0, 1, 2.842170943040401e-14, 0)"/><path id="XMLID_46_" fill-rule="evenodd" clip-rule="evenodd" fill="#000100" d="M629.9,590.7l52.8,10.7l-1.5,7.5&#10;&#9;&#9;c-0.7,3.4-4,5.6-7.4,4.9l-40.5-8.2c-3.4-0.7-5.6-4-4.9-7.4L629.9,590.7z" transform="matrix(1, 0, 0, 1, 2.842170943040401e-14, 0)"/><path id="XMLID_45_" fill-rule="evenodd" clip-rule="evenodd" fill="#909299" d="M618.9,655.4l-10.8-2.2c-3.5-0.7-5.8-4.2-5.1-7.7&#10;&#9;&#9;c0.7-3.5,4.1-5.8,7.6-5.1l10.8,2.2c3.5,0.7,5.8,4.2,5.1,7.7v0C625.9,653.8,622.4,656.1,618.9,655.4" transform="matrix(1, 0, 0, 1, 2.842170943040401e-14, 0)"/><path id="XMLID_44_" fill-rule="evenodd" clip-rule="evenodd" fill="#909299" d="M649.8,661.6l-10.8-2.2c-3.5-0.7-5.8-4.2-5.1-7.7&#10;&#9;&#9;l0,0c0.7-3.5,4.1-5.8,7.6-5.1l10.8,2.2c3.5,0.7,5.8,4.2,5.1,7.7v0C656.7,660,653.3,662.3,649.8,661.6" transform="matrix(1, 0, 0, 1, 2.842170943040401e-14, 0)"/><path id="XMLID_43_" fill-rule="evenodd" clip-rule="evenodd" fill="#909299" d="M680.7,667.9l-10.8-2.2c-3.5-0.7-5.8-4.2-5.1-7.7&#10;&#9;&#9;l0,0c0.7-3.5,4.1-5.8,7.6-5.1l10.8,2.2c3.5,0.7,5.8,4.2,5.1,7.7l0,0C687.6,666.3,684.2,668.6,680.7,667.9" transform="matrix(1, 0, 0, 1, 2.842170943040401e-14, 0)"/><path id="XMLID_42_" fill-rule="evenodd" clip-rule="evenodd" fill="#909299" d="M614.7,676.3l-10.8-2.2c-3.5-0.7-5.8-4.2-5.1-7.7&#10;&#9;&#9;l0,0c0.7-3.5,4.1-5.8,7.6-5.1l10.8,2.2c3.5,0.7,5.8,4.2,5.1,7.7l0,0C621.6,674.7,618.2,677,614.7,676.3" transform="matrix(1, 0, 0, 1, 2.842170943040401e-14, 0)"/><path id="XMLID_41_" fill-rule="evenodd" clip-rule="evenodd" fill="#909299" d="M645.6,682.5l-10.8-2.2c-3.5-0.7-5.8-4.2-5.1-7.7&#10;&#9;&#9;v0c0.7-3.5,4.1-5.8,7.6-5.1l10.8,2.2c3.5,0.7,5.8,4.2,5.1,7.7C652.5,681,649.1,683.2,645.6,682.5" transform="matrix(1, 0, 0, 1, 2.842170943040401e-14, 0)"/><path id="XMLID_40_" fill-rule="evenodd" clip-rule="evenodd" fill="#909299" d="M676.5,688.8l-10.8-2.2c-3.5-0.7-5.8-4.2-5.1-7.7&#10;&#9;&#9;l0,0c0.7-3.5,4.1-5.8,7.6-5.1l10.8,2.2c3.5,0.7,5.8,4.2,5.1,7.7l0,0C683.4,687.2,680,689.5,676.5,688.8" transform="matrix(1, 0, 0, 1, 2.842170943040401e-14, 0)"/><path id="XMLID_39_" fill-rule="evenodd" clip-rule="evenodd" fill="#909299" d="M610.5,697.4l-10.8-2.2c-3.5-0.7-5.8-4.2-5.1-7.7&#10;&#9;&#9;l0,0c0.7-3.5,4.1-5.8,7.6-5.1l10.8,2.2c3.5,0.7,5.8,4.2,5.1,7.7l0,0C617.4,695.8,614,698.1,610.5,697.4" transform="matrix(1, 0, 0, 1, 2.842170943040401e-14, 0)"/><path id="XMLID_38_" fill-rule="evenodd" clip-rule="evenodd" fill="#909299" d="M641.4,703.6l-10.8-2.2c-3.5-0.7-5.8-4.2-5.1-7.7&#10;&#9;&#9;l0,0c0.7-3.5,4.1-5.8,7.6-5.1l10.8,2.2c3.5,0.7,5.8,4.2,5.1,7.7h0C648.3,702,644.9,704.3,641.4,703.6" transform="matrix(1, 0, 0, 1, 2.842170943040401e-14, 0)"/><path id="XMLID_37_" fill-rule="evenodd" clip-rule="evenodd" fill="#909299" d="M672.3,709.9l-10.8-2.2c-3.5-0.7-5.8-4.2-5.1-7.7&#10;&#9;&#9;l0,0c0.7-3.5,4.1-5.8,7.6-5.1l10.8,2.2c3.5,0.7,5.8,4.2,5.1,7.7v0C679.2,708.3,675.8,710.6,672.3,709.9" transform="matrix(1, 0, 0, 1, 2.842170943040401e-14, 0)"/><path id="XMLID_36_" fill-rule="evenodd" clip-rule="evenodd" fill="#909299" d="M637.2,724.3l-10.8-2.2c-3.5-0.7-5.8-4.2-5.1-7.7&#10;&#9;&#9;l0,0c0.7-3.5,4.1-5.8,7.6-5.1l10.8,2.2c3.5,0.7,5.8,4.2,5.1,7.7v0C644.1,722.7,640.7,725,637.2,724.3" transform="matrix(1, 0, 0, 1, 2.842170943040401e-14, 0)"/><path id="XMLID_35_" fill-rule="evenodd" clip-rule="evenodd" fill="#E11F30" d="M593.7,743.1l-9-1.8c-2.9-0.6-4.8-3.5-4.2-6.4l0,0&#10;&#9;&#9;c0.6-2.9,3.5-4.8,6.4-4.2l9,1.8c2.9,0.6,4.8,3.5,4.2,6.4l0,0C599.5,741.8,596.6,743.7,593.7,743.1" transform="matrix(1, 0, 0, 1, 2.842170943040401e-14, 0)"/><path id="XMLID_34_" fill-rule="evenodd" clip-rule="evenodd" fill="#158A5D" d="M618,748l-9-1.8c-2.9-0.6-4.8-3.5-4.2-6.4h0&#10;&#9;&#9;c0.6-2.9,3.5-4.8,6.4-4.2l9,1.8c2.9,0.6,4.8,3.5,4.2,6.4C623.8,746.7,620.9,748.6,618,748" transform="matrix(1, 0, 0, 1, 2.842170943040401e-14, 0)"/><path id="XMLID_33_" fill-rule="evenodd" clip-rule="evenodd" fill="#EBA03E" d="M642,752.9l-9-1.8c-2.9-0.6-4.8-3.5-4.2-6.4&#10;&#9;&#9;c0.6-2.9,3.5-4.8,6.4-4.2l9,1.8c2.9,0.6,4.8,3.5,4.2,6.4C647.8,751.6,644.9,753.5,642,752.9" transform="matrix(1, 0, 0, 1, 2.842170943040401e-14, 0)"/><path id="XMLID_32_" fill-rule="evenodd" clip-rule="evenodd" fill="#6090C8" d="M666,757.7l-9-1.8c-2.9-0.6-4.8-3.5-4.2-6.4l0,0&#10;&#9;&#9;c0.6-2.9,3.5-4.8,6.4-4.2l9,1.8c2.9,0.6,4.8,3.5,4.2,6.4l0,0C671.8,756.4,668.9,758.3,666,757.7" transform="matrix(1, 0, 0, 1, 2.842170943040401e-14, 0)"/><path id="XMLID_31_" fill-rule="evenodd" clip-rule="evenodd" fill="#909299" d="M573.7,791.8l5.1-25.2c1.1-5.5,6.5-9.1,12-8l0,0&#10;&#9;&#9;c5.5,1.1,9.1,6.5,8,12.1l-5.1,25.2c-1.1,5.5-6.5,9.1-12,8h0C576.2,802.8,572.6,797.4,573.7,791.8" transform="matrix(1, 0, 0, 1, 2.842170943040401e-14, 0)"/><path id="XMLID_30_" fill-rule="evenodd" clip-rule="evenodd" fill="#909299" d="M638.2,804.9l5.1-25.2c1.1-5.5,6.5-9.1,12-8l0,0&#10;&#9;&#9;c5.5,1.1,9.1,6.5,8,12.1l-5.1,25.2c-1.1,5.5-6.5,9.1-12,8C640.7,815.8,637.1,810.4,638.2,804.9" transform="matrix(1, 0, 0, 1, 2.842170943040401e-14, 0)"/><path id="XMLID_29_" fill-rule="evenodd" clip-rule="evenodd" fill="#E11F30" d="M624.4,627.9l-10.8-2.2c-3.5-0.7-5.8-4.2-5.1-7.7&#10;&#9;&#9;v0c0.7-3.5,4.1-5.8,7.6-5.1l10.8,2.2c3.5,0.7,5.8,4.2,5.1,7.7v0C631.4,626.3,627.9,628.6,624.4,627.9" transform="matrix(1, 0, 0, 1, 2.842170943040401e-14, 0)"/><path id="XMLID_28_" fill-rule="evenodd" clip-rule="evenodd" fill="#FFFFFF" d="M619.5,624.5c0,0-0.1,0-0.1,0&#10;&#9;&#9;c-1-0.2-1.8-0.8-2.3-1.7c-0.5-0.8-0.6-1.8-0.4-2.7c0.3-1.1,1.1-2,2.2-2.5c0,0,0.1,0,0.1,0c0,0,0,0.1,0,0.1c-1,0.4-1.8,1.3-2.1,2.4&#10;&#9;&#9;c-0.2,0.9-0.1,1.8,0.4,2.5c0.5,0.8,1.3,1.4,2.2,1.6c1.9,0.5,3.8-0.7,4.3-2.5c0.3-1.2-0.1-2.5-1-3.3c0,0,0-0.1,0-0.1&#10;&#9;&#9;c0,0,0.1,0,0.1,0c1,0.9,1.4,2.2,1.1,3.5C623.3,623.7,621.4,624.9,619.5,624.5" transform="matrix(1, 0, 0, 1, 2.842170943040401e-14, 0)"/><path id="XMLID_27_" fill-rule="evenodd" clip-rule="evenodd" fill="#FFFFFF" d="M619.4,625.1L619.4,625.1c-0.1,0-0.1,0-0.2,0&#10;&#9;&#9;c-1.1-0.3-2.1-1-2.7-2c-0.6-0.9-0.7-2.1-0.5-3.1c0.3-1.3,1.3-2.4,2.6-2.9c0.4-0.1,0.7,0,0.9,0.4c0.1,0.2,0.1,0.4,0,0.5&#10;&#9;&#9;c-0.1,0.2-0.2,0.3-0.4,0.4c-0.9,0.3-1.5,1.1-1.7,1.9c-0.2,0.7-0.1,1.4,0.3,2.1c0.4,0.7,1.1,1.2,1.8,1.3c1.6,0.4,3.1-0.5,3.5-2&#10;&#9;&#9;c0.2-1-0.1-2-0.8-2.7c-0.3-0.3-0.3-0.7,0-1c0.3-0.3,0.7-0.3,1,0c1.1,1,1.6,2.6,1.3,4.1C623.9,624.2,621.7,625.5,619.4,625.1" transform="matrix(1, 0, 0, 1, 2.842170943040401e-14, 0)"/><path id="XMLID_26_" fill-rule="evenodd" clip-rule="evenodd" fill="#FFFFFF" d="M620.3,620.4C620.3,620.4,620.3,620.3,620.3,620.4&#10;&#9;&#9;l0.8-4.5c0,0,0-0.1,0.1-0.1c0,0,0.1,0,0.1,0.1L620.3,620.4C620.4,620.4,620.4,620.4,620.3,620.4" transform="matrix(1, 0, 0, 1, 2.842170943040401e-14, 0)"/><path id="XMLID_25_" fill-rule="evenodd" clip-rule="evenodd" fill="#FFFFFF" d="M620.2,621c-0.4-0.1-0.6-0.4-0.5-0.8l0.9-4.4&#10;&#9;&#9;c0.1-0.4,0.4-0.6,0.8-0.5c0.4,0.1,0.6,0.4,0.5,0.8l-0.9,4.4C620.9,620.8,620.6,621.1,620.2,621" transform="matrix(1, 0, 0, 1, 2.842170943040401e-14, 0)"/><path id="XMLID_24_" fill-rule="evenodd" clip-rule="evenodd" fill="#909299" d="M655.3,634.2l-10.8-2.2c-3.5-0.7-5.8-4.2-5.1-7.7&#10;&#9;&#9;l0,0c0.7-3.5,4.1-5.8,7.6-5.1l10.8,2.2c3.5,0.7,5.8,4.2,5.1,7.7v0C662.3,632.6,658.8,634.9,655.3,634.2" transform="matrix(1, 0, 0, 1, 2.842170943040401e-14, 0)"/><path id="XMLID_23_" fill-rule="evenodd" clip-rule="evenodd" fill="#909299" d="M686.2,640.5l-10.8-2.2c-3.5-0.7-5.8-4.2-5.1-7.7&#10;&#9;&#9;c0.7-3.5,4.1-5.8,7.6-5.1l10.8,2.2c3.5,0.7,5.8,4.2,5.1,7.7h0C693.2,638.9,689.7,641.2,686.2,640.5" transform="matrix(1, 0, 0, 1, 2.842170943040401e-14, 0)"/><path id="XMLID_22_" fill-rule="evenodd" clip-rule="evenodd" fill="#909299" d="M625,784.6l-10.8-2.2c-3.5-0.7-5.8-4.2-5.1-7.7&#10;&#9;&#9;l0,0c0.7-3.5,4.1-5.8,7.6-5.1l10.8,2.2c3.5,0.7,5.8,4.2,5.1,7.7l0,0C632,783,628.5,785.3,625,784.6" transform="matrix(1, 0, 0, 1, 2.842170943040401e-14, 0)"/><path id="XMLID_21_" fill-rule="evenodd" clip-rule="evenodd" fill="#909299" d="M620.7,806l-10.8-2.2c-3.5-0.7-5.8-4.2-5.1-7.7&#10;&#9;&#9;l0,0c0.7-3.5,4.1-5.8,7.6-5.1l10.8,2.2c3.5,0.7,5.8,4.2,5.1,7.7l0,0C627.6,804.4,624.2,806.7,620.7,806" transform="matrix(1, 0, 0, 1, 2.842170943040401e-14, 0)"/><path id="XMLID_20_" fill-rule="evenodd" clip-rule="evenodd" fill="#909299" d="M576.6,827.8l-9-1.8c-2.9-0.6-4.8-3.5-4.2-6.4&#10;&#9;&#9;c0.6-2.9,3.5-4.8,6.4-4.2l9,1.8c2.9,0.6,4.8,3.5,4.2,6.4h0C582.4,826.5,579.5,828.4,576.6,827.8" transform="matrix(1, 0, 0, 1, 2.842170943040401e-14, 0)"/><path id="XMLID_19_" fill-rule="evenodd" clip-rule="evenodd" fill="#909299" d="M600.9,832.7l-9-1.8c-2.9-0.6-4.8-3.5-4.2-6.4l0,0&#10;&#9;&#9;c0.6-2.9,3.5-4.8,6.4-4.2l9,1.8c2.9,0.6,4.8,3.5,4.2,6.4C606.7,831.4,603.8,833.3,600.9,832.7" transform="matrix(1, 0, 0, 1, 2.842170943040401e-14, 0)"/><path id="XMLID_18_" fill-rule="evenodd" clip-rule="evenodd" fill="#909299" d="M624.9,837.6l-9-1.8c-2.9-0.6-4.8-3.5-4.2-6.4&#10;&#9;&#9;c0.6-2.9,3.5-4.8,6.4-4.2l9,1.8c2.9,0.6,4.8,3.5,4.2,6.4C630.7,836.3,627.8,838.2,624.9,837.6" transform="matrix(1, 0, 0, 1, 2.842170943040401e-14, 0)"/><path id="XMLID_17_" fill-rule="evenodd" clip-rule="evenodd" fill="#909299" d="M648.9,842.5l-9-1.8c-2.9-0.6-4.8-3.5-4.2-6.4h0&#10;&#9;&#9;c0.6-2.9,3.5-4.8,6.4-4.2l9,1.8c2.9,0.6,4.8,3.5,4.2,6.4l0,0C654.6,841.1,651.8,843,648.9,842.5" transform="matrix(1, 0, 0, 1, 2.842170943040401e-14, 0)"/><path id="XMLID_16_" fill-rule="evenodd" clip-rule="evenodd" fill="#909299" d="M572.6,847.8l-9-1.8c-2.9-0.6-4.8-3.5-4.2-6.4&#10;&#9;&#9;c0.6-2.9,3.5-4.8,6.4-4.2l9,1.8c2.9,0.6,4.8,3.5,4.2,6.4h0C578.3,846.4,575.5,848.3,572.6,847.8" transform="matrix(1, 0, 0, 1, 2.842170943040401e-14, 0)"/><path id="XMLID_15_" fill-rule="evenodd" clip-rule="evenodd" fill="#909299" d="M596.9,852.7l-9-1.8c-2.9-0.6-4.8-3.5-4.2-6.4l0,0&#10;&#9;&#9;c0.6-2.9,3.5-4.8,6.4-4.2l9,1.8c2.9,0.6,4.8,3.5,4.2,6.4C602.7,851.4,599.8,853.3,596.9,852.7" transform="matrix(1, 0, 0, 1, 2.842170943040401e-14, 0)"/><path id="XMLID_14_" fill-rule="evenodd" clip-rule="evenodd" fill="#909299" d="M620.9,857.5l-9-1.8c-2.9-0.6-4.8-3.5-4.2-6.4&#10;&#9;&#9;c0.6-2.9,3.5-4.8,6.4-4.2l9,1.8c2.9,0.6,4.8,3.5,4.2,6.4C626.6,856.2,623.8,858.1,620.9,857.5" transform="matrix(1, 0, 0, 1, 2.842170943040401e-14, 0)"/><path id="XMLID_13_" fill-rule="evenodd" clip-rule="evenodd" fill="#909299" d="M644.8,862.4l-9-1.8c-2.9-0.6-4.8-3.5-4.2-6.4h0&#10;&#9;&#9;c0.6-2.9,3.5-4.8,6.4-4.2l9,1.8c2.9,0.6,4.8,3.5,4.2,6.4l0,0C650.6,861.1,647.8,863,644.8,862.4" transform="matrix(1, 0, 0, 1, 2.842170943040401e-14, 0)"/><path id="XMLID_12_" fill-rule="evenodd" clip-rule="evenodd" fill="#ECC1A6" d="M507.7,818l10.5,10.5l81.6-81.9&#10;&#9;&#9;c7.1-7.1,7.1-18.7,0-25.9c-7.1-7.2-18.7-7.2-25.8,0l-55,55.2L507.7,818z" transform="matrix(1, 0, 0, 1, 2.842170943040401e-14, 0)"/><path d="M 155.399994 97.900002 H 334.299988 V 277.400002 H 155.399994 V 97.900002 Z" id="XMLID_11_" fill-rule="evenodd" clip-rule="evenodd" transform="matrix(1, 0, 0, 1, 2.842170943040401e-14, 0)"/><path d="M 167 109.599998 H 322.699997 V 265.799995 H 167 V 109.599998 Z" id="XMLID_10_" fill-rule="evenodd" clip-rule="evenodd" fill="#849DAA" transform="matrix(1, 0, 0, 1, 2.842170943040401e-14, 0)"/><path d="M 171 113.599998 H 318.600006 V 261.700005 H 171 V 113.599998 Z" id="XMLID_9_" fill-rule="evenodd" clip-rule="evenodd" fill="#FFFFFF" transform="matrix(1, 0, 0, 1, 2.842170943040401e-14, 0)"/><path d="M 171 113.5999984741211 L 318.70001220703125 113.5999984741211 L 318.70001220703125 261.70001220703125 Z" id="XMLID_8_" fill-rule="evenodd" clip-rule="evenodd" fill="#E6E7E8" transform="matrix(1, 0, 0, 1, 2.842170943040401e-14, 0)"/><path d="M 1065.699951 97.900002 H 1244.599945 V 277.400002 H 1065.699951 V 97.900002 Z" id="XMLID_7_" fill-rule="evenodd" clip-rule="evenodd" transform="matrix(1, 0, 0, 1, 2.842170943040401e-14, 0)"/><path d="M 1077.300049 109.599998 H 1233.000046 V 265.799995 H 1077.300049 V 109.599998 Z" id="XMLID_6_" fill-rule="evenodd" clip-rule="evenodd" fill="#849DAA" transform="matrix(1, 0, 0, 1, 2.842170943040401e-14, 0)"/><path d="M 1081.300049 113.599998 H 1228.900055 V 261.700005 H 1081.300049 V 113.599998 Z" id="XMLID_5_" fill-rule="evenodd" clip-rule="evenodd" fill="#FFFFFF" transform="matrix(1, 0, 0, 1, 2.842170943040401e-14, 0)"/><path d="M 1081.300048828125 113.5999984741211 L 1229 113.5999984741211 L 1229 261.70001220703125 Z" id="XMLID_4_" fill-rule="evenodd" clip-rule="evenodd" fill="#E6E7E8" transform="matrix(1, 0, 0, 1, 2.842170943040401e-14, 0)"/><path d="M 1196.599976 459.299988 H 1295.199974 V 584.199989 H 1196.599976 V 459.299988 Z" id="XMLID_3_" fill-rule="evenodd" clip-rule="evenodd" fill="#E7A95C" transform="matrix(1, 0, 0, 1, 5.684341886080802e-14, 0)"/><path d="M 1213.5 477.200012 H 1278.300003 V 566.400009 H 1213.5 V 477.200012 Z" id="XMLID_2_" fill-rule="evenodd" clip-rule="evenodd" fill="#DEDFE0" transform="matrix(1, 0, 0, 1, 5.684341886080802e-14, 0)"/>
</svg>